# xmcd
#
# Track frame offsets: 
#        150
#        12237
#        26744
#        37770
#        52236
#        62424
#        74781
#        85351
#        98112
#        109906
#        121913
#        135695
#        147382
#        161685
#        172056
#        182602
#        191538
#        201755
#        213721
#        224932
#        240785
#        250455
#        263146
#        276457
#
# Disc length: 3869 seconds
#
# Revision: 3
# Processed by: cddbd v1.5.2PL0 Copyright (c) Steve Scherf et al.
# Submitted via: ExactAudioCopyFreeDBPlugin 1.0
#
DISCID=7a0f1b18
DTITLE=Various Artist - Motown Girls, 1961-1969 ("Finders Keepers" and 
DTITLE="Love and Affection" and "Baby I've Got It!")
DYEAR=2018
DGENRE=Soul
TTITLE0=Gladys Knight and The Pips - In My Heart I Know It's Right
TTITLE1=Brenda Holloway - Without Love You Lose a Good Feelin' (origin
TTITLE1=al mix)
TTITLE2=Rita Wright - It's Been a Long Time Happenin'
TTITLE3=The Lewis Sisters - Honey Don't Leave Me
TTITLE4=Brenda Holloway - Baby I've Got It
TTITLE5=Liz Lands - It's Crazy Baby
TTITLE6=Ann Bogan - There Are Things
TTITLE7=Martha and The Vandellas - I'm Willing to Pay the Price
TTITLE8=LaBrenda Ben - Bad News
TTITLE9=Oma Page - When Someone's Good to You
TTITLE10=Gladys Knight and The Pips - Is This Why (I Gave My Love to You
TTITLE10=)
TTITLE11=Kim Weston - I Up and Think of You
TTITLE12=LaBrenda Ben - It's All Right
TTITLE13=Mary Wells - She Don't Love You (with strings)
TTITLE14=Martha and The Vandellas - Mr. Misery (Let Me Be)
TTITLE15=The Marvelettes - Playboy (first version)
TTITLE16=Thelma Brown - Cookie Boy
TTITLE17=Little Lisa - Keep Away
TTITLE18=The Marvelettes - Sweet Talkin' Guy
TTITLE19=Yvonne Fair - I Know (You Don't Love Me No More) (original mi
TTITLE19=x)
TTITLE20=Barbara McNair - You've Got Possibilities
TTITLE21=Patrice Holloway - In Your Heart
TTITLE22=The Lollipops - There Was
TTITLE23=Kim Weston - So Long
EXTD=
EXTT0=
EXTT1=
EXTT2=
EXTT3=
EXTT4=
EXTT5=
EXTT6=
EXTT7=
EXTT8=
EXTT9=
EXTT10=
EXTT11=
EXTT12=
EXTT13=
EXTT14=
EXTT15=
EXTT16=
EXTT17=
EXTT18=
EXTT19=
EXTT20=
EXTT21=
EXTT22=
EXTT23=
PLAYORDER=
